<svg xmlns="http://www.w3.org/2000/svg" xmlns:xlink="http://www.w3.org/1999/xlink" x="0px" y="0px"
	 width="13.992px" height="13.503px" viewBox="0 0 13.992 13.503" enable-background="new 0 0 13.992 13.503" xml:space="preserve">
<g>
	<path fill="#241D12" d="M13.533,2.487l-0.531,4.25L4.004,8.331L4.17,9.327c0.155,0.753,0.442,1.129,0.863,1.129h7.969v0.531H5.033
		c-0.376,0-0.687-0.155-0.93-0.465c-0.222-0.31-0.365-0.675-0.432-1.096l-1.428-7.77C2.177,1.391,2.1,1.214,2.011,1.125
		C1.834,0.971,1.424,0.893,0.783,0.893V0.362c0.73,0,1.25,0.122,1.561,0.365c0.177,0.155,0.31,0.388,0.398,0.697L13.533,2.487z
		 M3.406,11.75c0.155-0.155,0.343-0.232,0.564-0.232c0.221,0,0.409,0.078,0.564,0.232c0.155,0.155,0.232,0.343,0.232,0.564
		c0,0.222-0.078,0.41-0.232,0.564c-0.155,0.155-0.343,0.232-0.564,0.232c-0.222,0-0.41-0.077-0.564-0.232
		c-0.155-0.155-0.232-0.343-0.232-0.564C3.174,12.094,3.251,11.906,3.406,11.75z M10.843,11.75c0.155-0.155,0.343-0.232,0.564-0.232
		c0.221,0,0.409,0.078,0.564,0.232c0.155,0.155,0.232,0.343,0.232,0.564c0,0.222-0.078,0.41-0.232,0.564
		c-0.155,0.155-0.343,0.232-0.564,0.232c-0.222,0-0.41-0.077-0.564-0.232c-0.155-0.155-0.232-0.343-0.232-0.564
		C10.611,12.094,10.688,11.906,10.843,11.75z"/>
</g>
</svg>
