<svg xmlns="http://www.w3.org/2000/svg" viewBox="0 0 512 512"><path d="M509.867 89.6c-2.133-2.133-4.267-4.267-8.533-4.267H96L85.333 29.867c0-4.267-6.4-8.533-10.667-8.533h-64C4.267 21.333 0 25.6 0 32s4.267 10.667 10.667 10.667h55.467l51.2 260.267c6.4 34.133 38.4 59.733 72.533 59.733H435.2c6.4 0 10.667-4.267 10.667-10.667 0-6.4-4.267-10.667-10.667-10.667H192c-17.067 0-34.133-8.533-42.667-23.467L460.8 275.2c4.267 0 8.533-4.267 8.533-8.533L512 96s0-4.267-2.133-6.4zM450.133 256l-311.467 40.533-38.4-192H486.4L450.133 256zM181.333 384C151.467 384 128 407.467 128 437.333c0 29.867 23.467 53.333 53.333 53.333 29.867 0 53.333-23.467 53.333-53.333C234.667 407.467 211.2 384 181.333 384zm0 85.333c-17.067 0-32-14.934-32-32s14.933-32 32-32 32 14.934 32 32-14.933 32-32 32zM394.667 384c-29.867 0-53.333 23.467-53.333 53.333 0 29.867 23.467 53.333 53.333 53.333 29.867 0 53.333-23.467 53.333-53.333S424.533 384 394.667 384zm0 85.333c-17.067 0-32-14.934-32-32s14.933-32 32-32 32 14.934 32 32-14.934 32-32 32z" transform="translate(0, 20)"/><path d="M408.973,142.689C368.113,101.829,313.785,79.326,256,79.326h-31.717l50.907-51.032L246.826,0L147.68,99.389 l97.852,99.488l28.563-28.093l-50.551-51.396H256c97.198,0,176.275,79.076,176.275,176.275S353.198,471.938,256,471.938 S79.725,392.861,79.725,295.659v-20.031l-40.062,0.004v20.031c0,57.786,22.503,112.113,63.364,152.973 C143.887,489.497,198.215,512,256,512c57.785,0,112.113-22.503,152.973-63.364c40.861-40.861,63.364-95.188,63.364-152.973 S449.834,183.55,408.973,142.689z" transform="translate(160, 0) scale(0.5)"/></svg>