<svg xmlns="http://www.w3.org/2000/svg" viewBox="0 0 512 512"><path d="M446.2963 95.0847a8.5085 8.5085 0 00-2.4164-6.0154L358.7951 3.9845a8.3983 8.3983 0 00-6.0154-2.4164v-.0766H97.5254C83.428 1.4915 72 12.9195 72 27.017v459.4577C72 500.572 83.428 512 97.5254 512h323.322c14.0975 0 25.5255-11.428 25.5255-25.5254V95.0847zm-85.0082-64.5452l56.0369 56.0368h-47.5284c-4.6988 0-8.5085-3.8097-8.5085-8.5085zm68.0678 455.935c0 4.6989-3.8096 8.5085-8.5084 8.5085H97.5255c-4.6989 0-8.5086-3.8096-8.5086-8.5084V27.0169c0-4.6988 3.8097-8.5084 8.5085-8.5084h246.7458v59.5593c0 14.0975 11.428 25.5254 25.5254 25.5254h59.5593z"/><path d="M157.0848 231.2203c-14.0975 0-25.5255 11.428-25.5255 25.5255 0 14.0974 11.428 25.5254 25.5255 25.5254 14.0974 0 25.5254-11.428 25.5254-25.5254 0-14.0975-11.428-25.5255-25.5254-25.5255zm0 34.034c-4.6989 0-8.5085-3.8097-8.5085-8.5085s3.8096-8.5085 8.5085-8.5085c4.6988 0 8.5084 3.8097 8.5084 8.5085s-3.8096 8.5084-8.5084 8.5084zm59.5593-17.017h170.1695v17.017H216.644zm-59.5594-102.1017c-14.0974 0-25.5254 11.428-25.5254 25.5254 0 14.0975 11.428 25.5254 25.5254 25.5254 14.0975 0 25.5255-11.4279 25.5255-25.5254 0-14.0975-11.428-25.5254-25.5255-25.5254zm0 34.0339c-4.6988 0-8.5084-3.8097-8.5084-8.5085s3.8096-8.5085 8.5084-8.5085 8.5085 3.8097 8.5085 8.5085-3.8097 8.5085-8.5085 8.5085zm59.5594-17.017h170.1695v17.017H216.644zm-59.5594 153.1526c-14.0974 0-25.5254 11.428-25.5254 25.5254 0 14.0975 11.428 25.5254 25.5254 25.5254 14.0975 0 25.5255-11.428 25.5255-25.5254 0-14.0975-11.428-25.5254-25.5255-25.5254zm0 34.0339c-4.6988 0-8.5084-3.8097-8.5084-8.5085s3.8096-8.5085 8.5084-8.5085 8.5085 3.8097 8.5085 8.5085-3.8097 8.5085-8.5085 8.5085zm59.5594-17.017h170.1695v17.017H216.644zm-59.5594 68.0678c-14.0974 0-25.5254 11.428-25.5254 25.5254 0 14.0975 11.428 25.5255 25.5254 25.5255 14.0975 0 25.5255-11.428 25.5255-25.5255 0-14.0974-11.428-25.5254-25.5255-25.5254zm0 34.034c-4.6988 0-8.5084-3.8097-8.5084-8.5086 0-4.6988 3.8096-8.5084 8.5084-8.5084s8.5085 3.8096 8.5085 8.5084c0 4.6989-3.8097 8.5085-8.5085 8.5085zm59.5594-17.017h170.1695v17.017H216.644z"/></svg>
