
<svg xmlns="http://www.w3.org/2000/svg" viewBox="0 0 512 512">
    <path d="M33.7065 513.9667c-5.91 0-10.7065-4.7965-10.7065-10.7065V10.7625C23 4.8525 27.7965.0561 33.7065.0561s10.7064 4.7965 10.7064 10.7064v492.4977c0 5.91-4.7965 10.7065-10.7064 10.7065z"/>
    <path d="M384.1079 321.3787c-39.1429 0-85.0737-5.5031-129.634-23.7684-101.5187-41.6696-215.1144 10.2568-216.2493 10.7707-3.319 1.5418-7.1947 1.3062-10.2782-.6638-3.0835-1.9914-4.9464-5.396-4.9464-9.0577V35.5373c0-4.561 2.8693-8.608 7.1733-10.107 5.7173-1.9699 140.8544-48.3932 232.4375-10.7706C364.879 56.629 479.3741 25.5589 480.509 25.2377c3.1692-.9422 6.6595-.2356 9.3575 1.7772 2.6552 2.0343 4.2183 5.182 4.2183 8.5224v263.1222c0 4.818-3.1905 9.0149-7.8157 10.2997-2.9336.835-45.374 12.4195-102.1611 12.4195zM166.745 259.8165c30.6205 0 63.575 4.7322 95.8657 17.9654 86.9794 35.7382 182.524 18.6507 210.061 12.4838V49.0917c-34.689 7.366-129.2271 21.8626-218.1979-14.625-72.8682-29.914-181.3676-.0429-210.061 8.865v239.3752c22.9119-8.5866 69.0568-22.8904 122.3322-22.8904zm316.6332 38.843h.2141z"/>
</svg>