<svg xmlns="http://www.w3.org/2000/svg" viewBox="0 0 512 512"><path d="M310.6175.3147c-6.381 0-11.5911 5.1902-11.5911 11.5911 0 6.401 5.21 11.5911 11.5911 11.5911H472.089L200.4128 295.1632c-4.5154 4.5253-4.5154 11.8789 0 16.3843 2.2726 2.2825 5.2398 3.394 8.207 3.394 2.9673 0 5.9345-1.1512 8.2071-3.394L488.5031 39.8812V201.333c0 6.4108 5.1802 11.591 11.591 11.591 6.391 0 11.5912-5.1802 11.5912-11.591V.3147z"/><path d="M400.5378 488.798l-377.3655.0198V111.4622H307.68V88.28H0V512l423.72-.0198v-307.68h-23.1822z"/></svg>
