<svg xmlns="http://www.w3.org/2000/svg" viewBox="-15 -15 512 512"><path d="M431.8059 13.021c-26.5999-26.553-69.675-26.553-96.2749 0l-24.0996 24.2317L54.893 293.6548l-.5452.5495c-.132.132-.132.2726-.2726.2726-.2726.4089-.6815.8135-.9499 1.2224 0 .1363-.1405.1363-.1405.2726-.2726.409-.4047.6815-.6815 1.0904-.132.1363-.132.2684-.2684.409-.1363.4088-.2726.6814-.4131 1.0903 0 .132-.132.132-.132.2726L-5.4285 469.9933c-1.6697 4.8728-.4004 10.2694 3.267 13.8856 2.5768 2.5429 6.0525 3.9655 9.6687 3.9527a16.0656 16.0656 0 004.3574-.6815l171.027-57.0544c.132 0 .132 0 .2726-.132.4302-.1278.8434-.311 1.2225-.5495.1065-.0128.2002-.0596.2768-.132.4047-.2727.9499-.5495 1.3588-.8221.4046-.2684.8178-.6773 1.2267-.9499.1363-.1405.2683-.1405.2683-.2726.1406-.1363.4132-.2683.5495-.5452l280.638-280.638c26.553-26.5999 26.553-69.675 0-96.2706zM178.5344 398.095L83.763 303.3278 320.9639 66.127l94.7713 94.767zM70.4142 328.5178l82.7939 82.7896-124.323 41.3927zm379.0937-201.5285l-14.435 14.5714-94.7756-94.7756 14.5756-14.5671c15.9428-15.9301 41.7845-15.9301 57.7317 0l37.0353 37.0353c15.8236 16.0153 15.764 41.7974-.132 57.736zm0 0"/></svg>
