<svg xmlns="http://www.w3.org/2000/svg" viewBox="0 0 512 512"><path d="M362.0285 448.7741c-5.7049 2.1816-11.5836 4.1219-17.4816 5.7629-5.1258 1.419-8.1375 6.7475-6.6992 11.8829 1.1873 4.2666 5.0582 7.0563 9.2862 7.0563a9.7445 9.7445 0 002.6063-.3571 218.1247 218.1247 0 0019.171-6.3035c4.9906-1.9016 7.4714-7.481 5.5794-12.462-1.9016-4.981-7.5197-7.4715-12.462-5.5795zm48.3424-26.4396c-4.9037 3.6295-10.0391 7.0853-15.2807 10.2708-4.5563 2.7704-6.0042 8.707-3.2338 13.2633 1.8148 2.9924 5.0003 4.6334 8.2533 4.6334 1.7086 0 3.4365-.4537 5.01-1.4093 5.7435-3.4847 11.3809-7.2784 16.748-11.2554 4.2762-3.1759 5.174-9.2187 2.0078-13.5046-3.1759-4.2763-9.1993-5.1837-13.5046-1.9982zM308.348 461.1397c-6.062.5502-12.2496.8301-18.3986.8301-5.3381 0-9.653 4.315-9.653 9.653 0 5.3382 4.3149 9.653 9.653 9.653 6.7281 0 13.495-.2992 20.1362-.9073 5.3188-.4827 9.2283-5.174 8.7456-10.4832-.4826-5.3091-5.2512-9.3152-10.4832-8.7456zM490.134 330.9782c-4.9134-2.0368-10.57.3186-12.5972 5.261-2.3264 5.6663-4.9424 11.2843-7.7707 16.69-2.4615 4.7204-.6275 10.5604 4.0929 13.0316 1.419.7433 2.9538 1.0908 4.4597 1.0908 3.475 0 6.844-1.8823 8.5719-5.1837 3.089-5.9173 5.9559-12.076 8.5043-18.2925 2.0271-4.9327-.3282-10.57-5.261-12.5972zm11.8829-56.5474c-5.203-.666-10.0875 3.1758-10.7053 8.4657-.7143 6.1007-1.7182 12.2207-2.9634 18.1863-1.0908 5.2126 2.2395 10.3287 7.4618 11.4292.666.1448 1.332.2027 1.9885.2027 4.4693 0 8.485-3.118 9.4406-7.6742 1.3708-6.535 2.4616-13.2246 3.2435-19.9045.6178-5.2899-3.1662-10.0778-8.4657-10.7052zm-52.165 109.4364a210.342 210.342 0 01-11.9794 13.9969c-3.6489 3.8805-3.4462 9.9909.444 13.6397 1.8534 1.7472 4.228 2.616 6.6027 2.616 2.5773 0 5.1354-1.0232 7.037-3.0504 4.5756-4.8651 8.987-10.0198 13.1089-15.3193 3.282-4.2088 2.5387-10.2612-1.67-13.5432-4.2087-3.2917-10.2708-2.5388-13.5432 1.6603zm52.4642-124.611c5.3381 0 9.653-4.3149 9.653-9.653 0-122.4293-99.5903-222.0197-222.0196-222.0197-114.9386 0-209.741 87.7847-220.9096 199.8274l-52.2036-52.2036c-3.7743-3.7743-9.875-3.7743-13.6494 0-3.7743 3.7744-3.7743 9.875 0 13.6494l67.5616 67.5615c.888.8978 1.9596 1.6024 3.1469 2.0948 1.1776.4923 2.4325.7432 3.6874.7432 1.255 0 2.5098-.251 3.6875-.7432 1.1873-.4924 2.2588-1.197 3.1469-2.0948l67.5615-67.5615c3.7744-3.7743 3.7744-9.875 0-13.6494-3.7743-3.7743-9.875-3.7743-13.6493 0l-49.385 49.385c12.3849-99.9958 97.7177-177.7027 201.005-177.7027 111.7725 0 202.7137 90.9412 202.7137 202.7136 0 5.3381 4.3149 9.653 9.653 9.653z"/></svg>
