<svg xmlns="http://www.w3.org/2000/svg" xml:space="preserve" viewBox="0 0 512 512">
  <path d="M404.6928 318.2763c-33.1685 0-62.3785 17.273-79.1081 43.2951L193.9449 292.405c4.7248-11.2019 7.339-23.5036 7.339-36.4038 0-12.9002-2.6142-25.202-7.339-36.4038l131.6398-69.1666c16.7306 26.0221 45.9396 43.2952 79.108 43.2952 51.8204 0 93.979-42.1586 93.979-93.9779 0-51.8224-42.1586-93.981-93.979-93.981-51.8191 0-93.9778 42.1586-93.9778 93.9789 0 12.9012 2.6143 25.202 7.3391 36.4038l-131.6398 69.1665c-16.7306-26.022-45.9395-43.2951-79.108-43.2951-51.8193 0-93.978 42.1586-93.978 93.9789 0 51.8203 42.1587 93.979 93.978 93.979 33.1685 0 62.3785-17.2731 79.108-43.2952l131.6398 69.1665c-4.7248 11.2019-7.339 23.5036-7.339 36.4038 0 51.8203 42.1586 93.979 93.9778 93.979 51.8203 0 93.979-42.1587 93.979-93.979 0-51.8192-42.1587-93.9778-93.979-93.9778zm0-296.3653c42.9185 0 77.8348 34.9164 77.8348 77.8349 0 42.9174-34.9163 77.8337-77.8348 77.8337S326.859 142.6633 326.859 99.746c-.001-42.9185 34.9153-77.8349 77.8338-77.8349zM107.305 333.835c-42.9174 0-77.8338-34.9164-77.8338-77.8349s34.9164-77.8349 77.8338-77.8349c42.9173 0 77.8337 34.9164 77.8337 77.8349s-34.9164 77.8349-77.8337 77.8349zm297.3877 156.254c-42.9185 0-77.8338-34.9163-77.8338-77.8348 0-42.9174 34.9153-77.8338 77.8338-77.8338 42.9184 0 77.8348 34.9164 77.8348 77.8338 0 42.9185-34.9164 77.8349-77.8348 77.8349z"/>
</svg>
